<svg xmlns="http://www.w3.org/2000/svg" viewBox="0 0 400 300" fill="none">
  <rect width="400" height="300" rx="16" fill="#1e293b"/>
  <g stroke="#64748b" stroke-width="1">
    <line x1="40" y1="260" x2="360" y2="260"/>
    <line x1="40" y1="260" x2="40" y2="40"/>
    <line x1="40" y1="220" x2="360" y2="220" stroke-dasharray="4 4"/>
    <line x1="40" y1="180" x2="360" y2="180" stroke-dasharray="4 4"/>
    <line x1="40" y1="140" x2="360" y2="140" stroke-dasharray="4 4"/>
    <line x1="40" y1="100" x2="360" y2="100" stroke-dasharray="4 4"/>
    <line x1="40" y1="60" x2="360" y2="60" stroke-dasharray="4 4"/>
  </g>
  <text x="45" y="44" fill="#94a3b8" font-family="monospace" font-size="11">Performance</text>
  <text x="45" y="84" fill="#94a3b8" font-family="monospace" font-size="11">GPU Compute</text>
  <text x="45" y="124" fill="#94a3b8" font-family="monospace" font-size="11">WebGPU</text>
  <text x="45" y="164" fill="#94a3b8" font-family="monospace" font-size="11">SoA Storage</text>
  <text x="45" y="204" fill="#94a3b8" font-family="monospace" font-size="11">Particles</text>
  <text x="45" y="244" fill="#94a3b8" font-family="monospace" font-size="11">Memory</text>
  <g fill="#3b82f6" opacity="0.8">
    <rect x="130" y="230" width="30" height="22" rx="3"/>
    <rect x="168" y="210" width="30" height="42" rx="3"/>
    <rect x="206" y="190" width="30" height="62" rx="3"/>
    <rect x="244" y="150" width="30" height="102" rx="3"/>
    <rect x="282" y="130" width="30" height="122" rx="3"/>
    <rect x="320" y="110" width="30" height="142" rx="3"/>
  </g>
  <g fill="#2563eb" opacity="0.4">
    <rect x="134" y="236" width="22" height="16" rx="2"/>
    <rect x="172" y="216" width="22" height="36" rx="2"/>
    <rect x="210" y="196" width="22" height="56" rx="2"/>
    <rect x="248" y="156" width="22" height="96" rx="2"/>
    <rect x="286" y="136" width="22" height="116" rx="2"/>
    <rect x="324" y="116" width="22" height="136" rx="2"/>
  </g>
</svg>
